<svg width="99" height="29" viewBox="0 0 99 29" fill="none" xmlns="http://www.w3.org/2000/svg">
<path fill-rule="evenodd" clip-rule="evenodd" d="M40.2217 21.6288C41.4385 21.6288 42.3859 21.3474 43.064 20.7845C43.403 20.4972 43.6714 20.134 43.8479 19.7237C44.0245 19.3134 44.1043 18.8671 44.0812 18.4202V11.3688C44.1041 10.9245 44.0246 10.4808 43.849 10.0729C43.6734 9.66503 43.4065 9.30403 43.0694 9.01844C42.3944 8.4596 41.4452 8.18018 40.2217 8.18018H36.3945C35.1921 8.18018 34.2539 8.45531 33.5798 9.00558C32.9056 9.55585 32.5684 10.344 32.568 11.3699V18.4213C32.568 19.4472 32.907 20.2384 33.5852 20.7949C34.2633 21.3514 35.1997 21.6297 36.3945 21.6299H40.2217V21.6288ZM34.7132 11.3967C34.7132 10.3768 35.3069 9.86692 36.4945 9.8671H40.1339C41.3213 9.8671 41.9149 10.377 41.9149 11.3967V18.4005C41.9149 19.42 41.3213 19.9299 40.1339 19.9301H36.4934C35.306 19.9301 34.7123 19.4202 34.7121 18.4005V11.3967H34.7132ZM46.2428 20.2387C46.2428 21.1031 46.7156 21.5352 47.6611 21.5352H52.8397C53.4633 21.5548 54.0822 21.4203 54.6429 21.1434C55.1341 20.8821 55.3798 20.568 55.3798 20.2012C55.3798 19.9588 55.2148 19.8376 54.8848 19.8376H49.9031C49.3084 19.8376 48.9016 19.7366 48.6826 19.5345C48.4637 19.3324 48.3537 18.9859 48.3526 18.4949V9.34483C48.3526 8.62366 48.0961 8.26307 47.583 8.26307C47.4042 8.27514 47.2302 8.32695 47.0734 8.4148C46.9166 8.50266 46.7809 8.62441 46.6759 8.7714C46.3775 9.13602 46.2228 9.59947 46.2418 10.0726V20.239L46.2428 20.2387ZM63.1927 9.96012C63.8163 9.97975 64.4352 9.84538 64.9959 9.56862C65.4872 9.30726 65.7328 8.99947 65.7328 8.64527C65.7328 8.38993 65.5678 8.26226 65.2379 8.26226H57.7931C56.8475 8.26226 56.3748 8.69442 56.3748 9.55877V20.2382C56.3748 21.1025 56.8475 21.5347 57.7931 21.5347H63.2138C63.8378 21.5527 64.4567 21.4166 65.017 21.1383C65.5151 20.874 65.7643 20.5614 65.7647 20.2007C65.7647 19.9583 65.596 19.8371 65.2587 19.8371H60.0353C59.4417 19.8371 59.0348 19.736 58.8148 19.5339C58.6917 19.3933 58.5988 19.2282 58.542 19.0492C58.4852 18.8702 58.4658 18.6813 58.485 18.4943V16.8528C58.4663 16.6673 58.4859 16.4798 58.5427 16.3024C58.5994 16.1249 58.6921 15.9614 58.8148 15.8222C59.0348 15.6203 59.4417 15.5193 60.0353 15.5191H62.4761C62.9894 15.5373 63.4964 15.401 63.9331 15.1273C64.1036 15.0357 64.2476 14.9006 64.3507 14.7354C64.4539 14.5702 64.5127 14.3806 64.5213 14.1854C64.5213 13.9556 64.3564 13.8406 64.0266 13.8404H60.0353C59.4417 13.8404 59.0348 13.7393 58.8148 13.5372C58.6917 13.3965 58.5988 13.2314 58.5421 13.0525C58.4853 12.8735 58.4659 12.6846 58.485 12.4976V11.2938C58.4662 11.1083 58.4859 10.9207 58.5426 10.7432C58.5994 10.5658 58.6921 10.4022 58.8148 10.263C59.0348 10.0611 59.4417 9.96003 60.0353 9.95985H63.1908L63.1927 9.96012ZM75.2171 18.4013C75.2171 19.4209 74.616 19.9307 73.4138 19.9309H70.4002C69.2128 19.9309 68.619 19.4211 68.6189 18.4013V9.34565C68.6189 8.62448 68.355 8.26389 67.8274 8.26389C67.647 8.27688 67.4716 8.33 67.3138 8.41948C67.1561 8.50895 67.0197 8.63257 66.9146 8.78151C66.6157 9.14255 66.459 9.60262 66.4748 10.0734V18.421C66.4507 18.8687 66.53 19.316 66.7066 19.7272C66.8832 20.1385 67.1521 20.5024 67.492 20.79C68.1699 21.3497 69.1099 21.6296 70.3121 21.6296H73.5236C74.7401 21.6296 75.6839 21.3497 76.3548 20.79C77.0257 20.2302 77.361 19.4406 77.3609 18.421V10.0726C77.3765 9.60181 77.2199 9.1418 76.9211 8.7807C76.8129 8.62971 76.6729 8.50493 76.5113 8.41541C76.3496 8.32589 76.1703 8.27386 75.9864 8.26307C75.4733 8.26307 75.2168 8.62366 75.2168 9.34483V18.4005L75.2171 18.4013ZM81.9966 19.8562C81.3091 19.847 80.6273 19.9853 79.9964 20.262C79.3952 20.5324 79.0947 20.8418 79.0949 21.19C79.0949 21.4201 79.2598 21.5352 79.5896 21.5352H85.0768C86.5132 21.5352 87.6383 21.19 88.4521 20.4997C89.2659 19.8094 89.6727 18.8176 89.6726 17.5245C89.6709 15.1434 88.1858 13.9528 85.2171 13.9528H83.5898C82.1532 13.9528 81.4349 13.2906 81.4349 11.966C81.4196 11.6851 81.4698 11.4045 81.5816 11.1469C81.6933 10.8893 81.8633 10.6619 82.078 10.4832C82.5968 10.1069 83.2276 9.92241 83.8647 9.96066H86.4056C87.0932 9.96983 87.7749 9.83155 88.4059 9.55494C89.0067 9.28464 89.3072 8.9816 89.3074 8.64582C89.3074 8.39047 89.1498 8.2628 88.8346 8.2628H83.8647C82.4795 8.2628 81.3712 8.59229 80.54 9.25126C80.1313 9.5727 79.8047 9.98858 79.5876 10.4641C79.3704 10.9396 79.2691 11.4608 79.2919 11.9841C79.2919 14.4281 80.7103 15.6501 83.5471 15.6501H85.0754C85.9474 15.6501 86.5705 15.8071 86.9446 16.121C87.3187 16.4349 87.5056 16.9215 87.5052 17.5808C87.5259 17.8953 87.4768 18.2105 87.3617 18.5033C87.2467 18.7962 87.0684 19.0593 86.84 19.2735C86.3207 19.688 85.6694 19.8954 85.0092 19.8565H81.9956L81.9966 19.8562Z" fill="#fff"/>
<path fill-rule="evenodd" clip-rule="evenodd" d="M92.364 4.75009C92.364 5.05833 92.4691 5.21245 92.6794 5.21245C92.8897 5.21245 92.9949 5.05833 92.9949 4.75009V1.52671C92.9823 1.39581 93.018 1.26483 93.0952 1.15901C93.1456 1.11748 93.2037 1.08654 93.2661 1.06798C93.3284 1.04943 93.3938 1.04364 93.4585 1.05094H93.8099C93.9648 1.05624 94.1168 1.00747 94.2405 0.912785C94.294 0.87466 94.3377 0.824115 94.368 0.765381C94.3983 0.706648 94.4143 0.64143 94.4145 0.575179C94.4162 0.556535 94.4136 0.537756 94.4068 0.520317C94.4001 0.502878 94.3895 0.487256 94.3758 0.474685C94.3621 0.462113 94.3457 0.452931 94.3279 0.447867C94.3101 0.442803 94.2913 0.441993 94.2732 0.4455H91.5485C91.3927 0.439539 91.2395 0.48782 91.1146 0.582293C91.0611 0.620386 91.0173 0.670923 90.987 0.729664C90.9567 0.788405 90.9408 0.85364 90.9405 0.919899C90.9389 0.938543 90.9415 0.957322 90.9482 0.974761C90.955 0.9922 90.9656 1.00782 90.9793 1.02039C90.993 1.03297 91.0094 1.04214 91.0272 1.04721C91.045 1.05227 91.0638 1.05308 91.0819 1.04958H91.8969C91.9623 1.04188 92.0285 1.04747 92.0917 1.06603C92.155 1.08458 92.2139 1.11573 92.2651 1.15764C92.3411 1.26395 92.3762 1.3947 92.3637 1.52534V4.74872L92.364 4.75009ZM98.9984 0.907859C98.9984 0.59962 98.8933 0.4455 98.683 0.4455C98.5945 0.461535 98.512 0.501556 98.4443 0.561299C98.3766 0.621042 98.3261 0.698269 98.2983 0.784747L97.079 3.12335C97.063 3.17713 97.0356 3.22673 96.9987 3.26869C96.9618 3.31065 96.9163 3.34396 96.8654 3.36629C96.8153 3.34333 96.7706 3.30977 96.7343 3.26786C96.698 3.22596 96.671 3.17668 96.6551 3.12335L95.4225 0.764776C95.395 0.681881 95.3455 0.608239 95.2795 0.551923C95.2134 0.495607 95.1333 0.458788 95.0479 0.4455C94.8419 0.4455 94.7389 0.59962 94.7389 0.907859V4.75009C94.7389 5.05833 94.8419 5.21245 95.0479 5.21245C95.2582 5.21245 95.3633 5.05833 95.3633 4.75009V1.93571L96.4875 4.11811C96.5155 4.20272 96.5653 4.27821 96.6319 4.33671C96.6984 4.39522 96.7793 4.43462 96.866 4.45079C96.9533 4.43126 97.034 4.38863 97.0999 4.32726C97.1657 4.26589 97.2142 4.18797 97.2406 4.10142L98.3648 1.93571V4.75009C98.3648 5.05833 98.471 5.21245 98.6835 5.21245C98.7305 5.21388 98.7769 5.20243 98.818 5.17931C98.8591 5.15619 98.8932 5.12227 98.9168 5.08112C98.9745 4.98088 99.0026 4.86601 98.9979 4.75009V0.907859H98.9984Z" fill="#fff"/>
<path fill-rule="evenodd" clip-rule="evenodd" d="M5.62905 21.5431C-3.73025 10.3767 -1.41272 3.42021 12.5816 0.673786C26.576 -2.07264 31.2555 3.51059 26.6203 17.4235C21.9854 31.3364 14.9883 32.7096 5.62905 21.5431ZM14.9063 20.1046C11.0702 14.4013 12.3982 10.5056 18.89 8.41761C25.3819 6.32961 27.2999 9.18137 24.6441 16.9729C21.988 24.7639 18.7421 25.8078 14.9063 20.1046Z" fill="url(#paint0_linear_278_2)"/>
<defs>
<linearGradient id="paint0_linear_278_2" x1="6.55701" y1="-5.28023e-05" x2="22.08" y2="28.8448" gradientUnits="userSpaceOnUse">
<stop stop-color="#1D9974"/>
<stop offset="0.14" stop-color="#1D9974"/>
<stop offset="1" stop-color="#0D5B7B"/>
</linearGradient>
</defs>
</svg>
